<svg viewBox="0 0 100 100" xmlns="http://www.w3.org/2000/svg">
  <defs><clipPath id="r2"><rect x="0" y="0" width="100" height="100" rx="22"/></clipPath></defs>
  <g clip-path="url(#r2)">
    <rect x="0" y="0" width="50" height="50" fill="#E8472A"/>
    <rect x="50" y="0" width="50" height="50" fill="#3AABDB"/>
    <rect x="0" y="50" width="50" height="50" fill="#F5C200"/>
    <rect x="50" y="50" width="50" height="50" fill="#5BBD4E"/>
  </g>
  <!-- Two people icons -->
  <circle cx="34" cy="34" r="8" fill="none" stroke="#fff" stroke-width="4.5"/>
  <path d="M20 58 C20 47 27 42 34 42 C41 42 48 47 48 58" fill="none" stroke="#fff" stroke-width="4.5" stroke-linecap="round"/>
  <circle cx="54" cy="34" r="8" fill="none" stroke="#fff" stroke-width="4.5"/>
  <path d="M40 58 C40 47 47 42 54 42 C61 42 68 47 68 58" fill="none" stroke="#fff" stroke-width="4.5" stroke-linecap="round"/>
  <!-- Plus badge bottom right -->
  <circle cx="74" cy="68" r="15" fill="#fff"/>
  <rect x="71" y="60" width="6" height="16" rx="2" fill="#3AABDB"/>
  <rect x="66" y="65" width="16" height="6" rx="2" fill="#3AABDB"/>
</svg>
